<?xml version="1.0" encoding="UTF-8" standalone="no"?>
<svg
   xmlns:dc="http://purl.org/dc/elements/1.1/"
   xmlns:cc="http://creativecommons.org/ns#"
   xmlns:rdf="http://www.w3.org/1999/02/22-rdf-syntax-ns#"
   xmlns:svg="http://www.w3.org/2000/svg"
   xmlns="http://www.w3.org/2000/svg"
   xmlns:sodipodi="http://sodipodi.sourceforge.net/DTD/sodipodi-0.dtd"
   xmlns:inkscape="http://www.inkscape.org/namespaces/inkscape"
   version="1.1"
   id="svg2"
   xml:space="preserve"
   width="4266.6665"
   height="2666.6667"
   viewBox="0 0 4266.6665 2666.6667"
   sodipodi:docname="10176.eps"><metadata
     id="metadata8"><rdf:RDF><cc:Work
         rdf:about=""><dc:format>image/svg+xml</dc:format><dc:type
           rdf:resource="http://purl.org/dc/dcmitype/StillImage" /></cc:Work></rdf:RDF></metadata><defs
     id="defs6" /><sodipodi:namedview
     pagecolor="#ffffff"
     bordercolor="#666666"
     borderopacity="1"
     objecttolerance="10"
     gridtolerance="10"
     guidetolerance="10"
     inkscape:pageopacity="0"
     inkscape:pageshadow="2"
     inkscape:window-width="640"
     inkscape:window-height="480"
     id="namedview4" /><g
     id="g10"
     inkscape:groupmode="layer"
     inkscape:label="ink_ext_XXXXXX"
     transform="matrix(1.3333333,0,0,-1.3333333,0,2666.6667)"><g
       id="g12"
       transform="scale(0.1)"><path
         d="M 0,0 H 32000 V 20000 H 0 Z"
         style="fill:#ffffff;fill-opacity:1;fill-rule:nonzero;stroke:none"
         id="path14" /><path
         d="m 28510.6,1878.4 c -8.7,-24.1 -1527.3,-53.1 -1538.2,-77.2 h -2588.1 l -157.4,0.5 -600,1.9 h -6782.5 l -557.5,0.7 -69.2,0.1 -930,1.1 -424.1,0.6 H 9641.9 l -2181.08,2.3 H 3516.77 c 0,0 -6.45,19.4 -19.58,58.1 l -2.11,4.9 c 0,0 -2.23,4.8 -2.23,7.1 -8.68,19.4 -4564.53,9617.4 1801.81,11361.6 2436.74,667.6 3471.54,1001.4 6008.44,4239.3 2147.1,2740.5 9699,1275.5 11840,-893.1 280.7,-284.4 2685.3,-2053.4 1679,-4076.2 -635.4,-1277 1240.1,-1594 2181.1,-1668.4 3218.5,-254.4 1529.2,-8914.9 1507.4,-8963.3"
         style="fill:#e9f3fe;fill-opacity:1;fill-rule:nonzero;stroke:none"
         id="path16" /><path
         d="m 10417,15953.5 c 342.3,550.3 1297,59.4 1297,59.4 0,0 371.5,-1254.7 563.7,-1339.6 192.2,-85 -108.1,1134.7 -108.1,1134.7 398.1,-78.8 1241.7,-849.3 1241.7,-849.3 0,0 -429.9,-1204.5 -222.7,-1239.5 207.2,-35 326.2,1085.9 326.2,1085.9 340.7,-224.8 559,-766.7 559,-766.7 223.1,-842.6 -870.5,-1085.6 -870.5,-1085.6 0,0 -140,-420.6 -24.1,-986.2 v 0 c 0,0 32.1,-107.6 46.4,-278.5 l -102.1,30.7 c -0.1,29.9 -1.4,59.1 -3.9,87.6 l -0.1,0.5 -0.1,1.2 c -2.2,17.9 -5.5,43.4 -9.9,74.5 v 0.1 0.1 c -12.8,70.5 -20.4,121.9 -23.9,158.5 v 0.3 c -35.9,219.7 -95.5,509.9 -169.6,589.2 0,0 16.1,12.5 36,40.3 -11.5,-12.9 -23.4,-26.2 -36,-40.3 -287.2,-321.9 -1179.6,-121.9 -1636.4,124.2 -456.8,246.1 -203.3,319.7 125.7,463.8 329.1,144 860.6,-79.7 1049.1,-41.1 188.5,38.7 -22.4,197.3 -354.4,269.8 -332,72.5 -591.8,-203.2 -1131,-95.7 -539.2,107.6 -642.4,1213.6 -642.4,1213.6 328.2,-221.1 1037.2,-216.3 1099.7,-99 62.5,117.3 -902.3,393.5 -1040.9,476 -138.5,82.4 -310.6,460.7 31.6,1011.1"
         style="fill:#dfebfd;fill-opacity:1;fill-rule:nonzero;stroke:none"
         id="path18" /><path
         d="m 17693.5,14425.9 c -244.8,393.7 -927.9,42.5 -927.9,42.5 0,0 -265.7,-897.6 -403.3,-958.4 -137.5,-60.8 77.4,811.8 77.4,811.8 -284.8,-56.4 -888.3,-607.6 -888.3,-607.6 0,0 307.5,-861.7 159.3,-886.8 -148.3,-25 -233.4,776.9 -233.4,776.9 -243.8,-160.9 -399.9,-548.5 -399.9,-548.5 -159.6,-602.9 622.8,-776.7 622.8,-776.7 0,0 100.1,-300.9 17.2,-705.5 v 0 c 0,0 -23,-77.1 -33.2,-199.3 l 73,22 c 0.1,21.3 1,42.2 2.8,62.6 l 0.1,0.4 0.1,0.9 c 1.6,12.7 3.9,31 7,53.2 v 0.1 l 0.1,0.1 c 9.1,50.4 14.5,87.2 17.1,113.3 v 0.3 c 25.6,157.2 68.3,364.8 121.3,421.5 0,0 -11.5,9 -25.7,28.8 8.2,-9.1 16.7,-18.7 25.7,-28.8 205.5,-230.3 843.9,-87.1 1170.7,88.9 326.8,176.1 145.5,228.7 -89.9,331.8 -235.4,103.1 -615.7,-57 -750.6,-29.4 -134.8,27.7 16.1,141.1 253.6,193 237.5,51.9 423.4,-145.4 809.1,-68.4 385.8,76.9 459.6,868.2 459.6,868.2 -234.8,-158.1 -742,-154.8 -786.7,-70.9 -44.7,84 645.5,281.6 744.7,340.6 99.1,59 222.2,329.6 -22.7,723.4"
         style="fill:#cde0fb;fill-opacity:1;fill-rule:nonzero;stroke:none"
         id="path20" /><path
         d="m 13360.9,2688 c 11.7,18 22.9,35.5 33.7,52 -15.8,-31.2 -30.5,-48.3 -33.7,-52 z m 1088.6,1828.7 c 0,0 -347.4,587.5 -780.5,787.1 0,0 59.9,-1315.5 -185.6,-1311.5 -245.5,3.9 38.9,1470.7 38.9,1470.7 0,0 -1109.9,741.3 -1583.6,762.2 0,0 561.6,-1355.8 324.7,-1291.5 -236.9,64.3 -886.9,1447.9 -886.9,1447.9 0,0 -1189.1,399 -1487.5,-296.9 -298.38,-695.9 -32.93,-1102.5 141.5,-1173.3 174.6,-70.8 1337.4,-220 1286,-366.5 -51.5,-146.5 -869.5,-276.8 -1287.5,-79.2 0,0 313.8,-1259.2 955.6,-1288.6 641.7,-29.3 893.1,335 1289.3,309.6 396.3,-25.2 667.8,-171.3 456.8,-249.1 -210.8,-77.7 -864.1,87 -1218.8,-137.4 -354.7,-224.3 -634.4,-353.9 -63.5,-557.6 570.8,-203.8 1636.8,-277.8 1911.8,144.6 99.6,-78.6 219.4,-403.3 299.6,-650.7 v -0.3 c 10.6,-41.6 28.3,-99.7 55.5,-178.8 l 0.2,-0.1 v -0.3 c 5.6,-18.9 10.6,-36 15,-50.9 h 110.7 c -9.4,29.3 -18.3,54.9 -26.3,76.6 -19.8,54 -33.8,83.7 -33.8,83.7 -233.4,632.7 -145.9,1143.2 -145.9,1143.2 0,0 1220.3,473.1 814.3,1407.1"
         style="fill:#afcdfb;fill-opacity:1;fill-rule:nonzero;stroke:none"
         id="path22" /><path
         d="M 15287.7,6814.8 V 1805.5 l -424.1,0.6 h -15.9 v 5008.7 h 440"
         style="fill:#94b0ed;fill-opacity:1;fill-rule:nonzero;stroke:none"
         id="path24" /><path
         d="m 10507.2,6814.8 h 5012 v 2877.4 c 0,1384 -1121.9,2506 -2506,2506 v 0 c -1384,0 -2506,-1122 -2506,-2506 V 6814.8"
         style="fill:#afcdfb;fill-opacity:1;fill-rule:nonzero;stroke:none"
         id="path26" /><path
         d="M 16944.5,12198.2 H 12860.3 V 8935.1 h 3585.4 l 498.8,3263.1"
         style="fill:#afcdfb;fill-opacity:1;fill-rule:nonzero;stroke:none"
         id="path28" /><path
         d="m 14438.5,6814.8 h 5012 v 2877.4 c 0,1384 -1121.9,2506 -2506,2506 -1384,0 -2506,-1122 -2506,-2506 V 6814.8"
         style="fill:#628ad3;fill-opacity:1;fill-rule:nonzero;stroke:none"
         id="path30" /><path
         d="m 14708.3,7104.5 h 4472.5 v 2567.7 c 0,1235 -1001.2,2236.2 -2236.3,2236.2 -1235,0 -2236.2,-1001.2 -2236.2,-2236.2 V 7104.5"
         style="fill:#233862;fill-opacity:1;fill-rule:nonzero;stroke:none"
         id="path32" /><path
         d="m 23431,6814.8 h -9067.8 c -80,0 -144.9,64.8 -144.9,144.8 0,80 64.9,144.9 144.9,144.9 H 23431 c 80,0 144.9,-64.9 144.9,-144.9 0,-80 -64.9,-144.8 -144.9,-144.8"
         style="fill:#628ad3;fill-opacity:1;fill-rule:nonzero;stroke:none"
         id="path34" /><path
         d="M 14040.9,6549.1 H 16165 c 75.1,0 136.1,61 136.1,136.1 v 136.1 H 13897 v -128.2 c 0,-79.5 64.4,-144 143.9,-144"
         style="fill:#94b0ed;fill-opacity:1;fill-rule:nonzero;stroke:none"
         id="path36" /><path
         d="m 25684.8,11813.3 c 0,0 191.6,-315.8 -168.7,-514.6 0,0 277,-99.9 373.4,-62.2 0,0 -23.9,-24.9 -42.1,-34 0,0 260.3,-82.6 390,-37.5 129.7,45.1 409.1,1305.3 -359.1,1371.8 0,0 -605.9,216.9 -734,-459.3 -128.1,-676.2 -361.5,-610.6 -361.5,-610.6 0,0 56.6,-47.7 87.9,-56.5 0,0 50.4,3.2 66,24 0,0 -19.4,-34.2 -34.4,-42.5 0,0 245.6,-92.9 396.1,-40.6 150.5,52.4 384,315.7 386.4,462"
         style="fill:#163560;fill-opacity:1;fill-rule:nonzero;stroke:none"
         id="path38" /><path
         d="m 24913.6,1865.1 h 980 c 0,0 23.5,149.3 -27.7,262.6 -49,108.8 -125.4,175.9 -132.3,259.2 -62.3,-64.1 -138.9,-105.4 -280.6,-86.3 -17.4,-28.1 -112.1,-178.8 -170.1,-220.4 -64,-46 -349.6,-29.7 -369.3,-215.1"
         style="fill:#233862;fill-opacity:1;fill-rule:nonzero;stroke:none"
         id="path40" /><path
         d="m 25723.4,2239.4 c 0,0 -83.6,-27.1 -170.8,-34.8 -154.4,-13.8 -176.9,32.2 -176.9,32.2 0,0 -153.4,1365.5 -650,3975.8 -71.6,377 -99.9,585.7 -125.8,920.8 -7.7,100.3 -15.3,211.9 -23.6,342.8 -22.5,351.8 30.9,943.9 294.9,1099.5 120,70.9 283.6,51.4 503.5,-121.7 17.3,-13.7 35,-28.3 53.1,-43.9 643.4,-556.6 379.6,-2155.1 405.6,-2906.6 4.4,-124.6 16.7,-225.9 42.3,-295.4 33.2,-89.7 104.5,-214.2 120.7,-331.5 135.1,-974.7 -273,-2637.2 -273,-2637.2"
         style="fill:#2b478b;fill-opacity:1;fill-rule:nonzero;stroke:none"
         id="path42" /><path
         d="m 25833.4,5503.5 -1233.5,1629.9 c -7.7,100.3 -15.3,211.9 -23.6,342.8 -22.5,351.8 30.9,943.9 294.9,1099.5 l 503.5,-121.7 c 17.3,-13.7 35,-28.3 53.1,-43.9 643.4,-556.6 379.6,-2155.1 405.6,-2906.6"
         style="fill:#233862;fill-opacity:1;fill-rule:nonzero;stroke:none"
         id="path44" /><path
         d="m 29319.9,3927.6 -407.9,891.1 c 0,0 -145.6,-40.8 -227.3,-134.5 -78.4,-89.8 -135.3,-73.9 -314,50.2 67.3,-104 76.4,-165.2 118,-301.9 32.9,-4.1 219.7,-184.9 411.1,-234.7 76.3,-19.9 243.3,-329.5 420.1,-270.2"
         style="fill:#233862;fill-opacity:1;fill-rule:nonzero;stroke:none"
         id="path46" /><path
         d="m 25043.4,8184.6 c 0,0 878.2,-3052.9 1200,-3249.4 321.7,-196.6 2013.5,-466.8 2357.5,-614.2 0,0 41.8,60 17.2,188.3 -5.4,28.5 -53.9,131.1 -53.9,131.1 0,0 -1050.6,789.7 -1742.1,869.4 -171.6,19.8 349.3,2640.4 -810.3,2745.1 -1059.3,95.6 -968.4,-70.3 -968.4,-70.3"
         style="fill:#2b478b;fill-opacity:1;fill-rule:nonzero;stroke:none"
         id="path48" /><path
         d="m 23741.6,13190.3 c 0,0 19.7,97.8 41.7,172.5 9.8,33.1 -58.3,250.1 -105.5,276.8 -47.2,26.8 -170,-119.4 -135.2,-231.7 17.8,-57.6 47.1,-245.2 47.1,-245.2 l 151.9,27.6"
         style="fill:#ffb27d;fill-opacity:1;fill-rule:nonzero;stroke:none"
         id="path50" /><path
         d="m 23741.6,13190.3 c 0,0 25.7,56.7 48.8,65.9 23.2,9.2 48,102 65,138.8 0,0 -16.4,24.1 -45.1,-6.9 -17.6,-18.9 -56.6,-74.3 -56.6,-74.3 l -12.1,-123.5"
         style="fill:#ffb27d;fill-opacity:1;fill-rule:nonzero;stroke:none"
         id="path52" /><path
         d="m 27796.7,12807.5 c 6,-12.4 14.3,-34.6 21.8,-55.4 0.1,5.7 0.2,11.3 0.2,16.8 0.4,41.5 155.3,267.3 219,281.5 63.7,14.1 153.6,-197.4 74.1,-314.4 -40.9,-60 -164.3,-274.1 -164.3,-274.1 l -136.7,82.5 c 0,0 -0.9,57.6 -37.8,104.3 -18.6,23.6 -19.3,134.3 -25.9,182.7 0,0 27.4,21.9 49.6,-23.9"
         style="fill:#ffb27d;fill-opacity:1;fill-rule:nonzero;stroke:none"
         id="path54" /><path
         d="m 25219,11004.9 c -2.1,-0.6 176.4,-129.8 327.9,-111.7 142.4,17 258.3,181.2 256.4,181.9 -56.2,20.1 -61.1,102.3 -8.9,444.4 l -27,-1.2 -453.6,-21.8 c 0,0 -10.7,-140.1 -29.8,-270.8 -16,-109.8 -38.1,-212.8 -65,-220.8"
         style="fill:#ffb27d;fill-opacity:1;fill-rule:nonzero;stroke:none"
         id="path56" /><path
         d="m 25313.8,11496.5 c 0,0 -10.7,-140.1 -29.8,-270.8 247.6,-29.8 411.4,175.8 483.4,292.6 l -453.6,-21.8"
         style="fill:#ed975d;fill-opacity:1;fill-rule:nonzero;stroke:none"
         id="path58" /><path
         d="m 25820,11559.4 c 0,0 159.6,185 216.6,355 40.7,121.3 45.9,592.8 -428.3,595.3 0,0 -136.8,6.8 -276.3,-59.9 -110.9,-53.1 -278.2,-178.5 -175.6,-605.9 l 22,-142.4 641.6,-142.1"
         style="fill:#163560;fill-opacity:1;fill-rule:nonzero;stroke:none"
         id="path60" /><path
         d="m 24650,8302.2 c 0,0 445,-280.8 1186.1,-100.4 8.7,2.1 421.4,67.9 421.4,67.9 -10.3,28.3 -444,744.8 -454.1,770.8 -131.5,339.3 173,1959.3 -27.8,2050.2 -51.3,-55.9 -197.8,-94.1 -323.2,-83 -144.4,12.8 -192.8,75.2 -180.8,142.3 -159.8,-75.6 -282.6,-145.8 -282.6,-145.8 -146,-218.8 -339,-2702 -339,-2702"
         style="fill:#ffb27d;fill-opacity:1;fill-rule:nonzero;stroke:none"
         id="path62" /><path
         d="m 25213,11385.1 c 0,0 582,-96.4 636.4,266.9 54.5,363.4 166.3,595.7 -203,672.6 -369.3,76.9 -462.4,-50.9 -510.1,-167.8 -47.7,-116.8 -73.3,-737.3 76.7,-771.7"
         style="fill:#ffb27d;fill-opacity:1;fill-rule:nonzero;stroke:none"
         id="path64" /><path
         d="m 25382,12373 c 0,0 96.3,-450.1 332.1,-549.6 235.8,-99.5 351.9,-49.7 351.9,-49.7 0,0 -165.8,177.4 -166.1,444 0,0 -367.2,340.3 -517.9,155.3"
         style="fill:#163560;fill-opacity:1;fill-rule:nonzero;stroke:none"
         id="path66" /><path
         d="m 25416.5,12332.5 c 0,0 -133.5,-77.4 -176.3,-165.7 -42.9,-88.2 -84.3,-276.7 -138.9,-262 0,0 -77.2,307.7 82.4,451.5 169.3,152.5 232.8,-23.8 232.8,-23.8"
         style="fill:#163560;fill-opacity:1;fill-rule:nonzero;stroke:none"
         id="path68" /><path
         d="m 27972.8,12460.1 c 0,0 -375.3,-1140.8 -475.2,-1317.2 -60.2,-106.5 -736.3,-527.4 -1128.7,-804.8 -4.2,-3 -9.2,-9.1 -15,-18 l -0.5,-0.6 c -97.9,-151.4 -402.3,-1088.9 -329.6,-1257.1 306,-707.2 515.8,-980.7 592.1,-1179.1 38.1,-99 -12.8,-209.8 -112.7,-245.4 -125.7,-44.7 -310.9,-101.1 -529.5,-138.5 -41.7,-7.2 -84.6,-13.7 -128.5,-19.2 -603.2,-76.6 -1011.5,64.9 -1218.9,169.5 -98,49.5 -157.2,152.4 -151.1,262.1 12.5,223.7 124.4,445.1 174.8,983.2 38.3,408.2 -314,1029.5 -299.1,1246.8 5.9,85.9 73.5,188.7 110,255.3 l 0.1,0.3 c 64.8,117.9 100.4,224.4 57.2,283.6 -287,394 -906.7,937.2 -932.1,1072.8 -37,199.3 -20.3,1431.3 -20.3,1431.3 23.7,8.3 58.6,28 104.1,32.1 40.5,3.6 91.4,-9.5 91.4,-9.5 0,0 164.2,-1020.8 176.4,-1074.8 12.2,-54.1 704.3,-833.8 890.9,-830.6 168.4,2.8 406,-127.3 443,-152.3 0,0 -151.2,-268.1 -189,-630 -26.3,-253.2 142.8,-140.7 249.1,32.7 143.8,234.8 433.2,569 433.2,569 0,0 235.5,61.2 411,-2.4 175.5,-63.6 1083.3,449.1 1112.4,496.2 29.1,47.2 515.3,953.2 515.3,953.2 0,0 40.3,23.4 105,-10.2 63.8,-33.3 64.2,-98.4 64.2,-98.4"
         style="fill:#f99746;fill-opacity:1;fill-rule:nonzero;stroke:none"
         id="path70" /><path
         d="m 25382,11582.4 c 0,0 -24.9,-50.2 -58.4,-51.1 -33.4,-1 -118.5,7.1 -124.3,15.8 -5.8,8.7 -19.9,61.1 -19.9,61.1 0,0 140.7,5.6 202.6,-25.8"
         style="fill:#ffffff;fill-opacity:1;fill-rule:nonzero;stroke:none"
         id="path72" /><path
         d="m 26503.2,7637.9 c -125.7,-44.7 -310.9,-101.1 -529.5,-138.5 -208.1,286.9 -560.3,647.9 -469.7,1311.8 93.7,686.4 768.4,1408.7 849.4,1508.3 -97.9,-151.4 -402.3,-1088.9 -329.6,-1257.1 306,-707.2 515.8,-980.7 592.1,-1179.1 38.1,-99 -12.8,-209.8 -112.7,-245.4"
         style="fill:#ed7d2b;fill-opacity:1;fill-rule:nonzero;stroke:none"
         id="path74" /><path
         d="m 24461,10397.4 c 64.8,117.9 100.4,224.4 57.2,283.6 -287,394 -906.7,937.2 -932.1,1072.8 61.5,-147.4 812,-587.8 1023.1,-777.1 208.7,-186.9 -139.6,-570.2 -148.2,-579.3"
         style="fill:#ed7d2b;fill-opacity:1;fill-rule:nonzero;stroke:none"
         id="path76" /><path
         d="m 18740.4,14438.8 c 0,0 -30.2,328.5 336.9,328.5 0,0 -111.2,-30.2 -168.8,-90.5 0,0 234.1,137.4 488.9,-73.7 254.8,-211.2 96.5,-740.9 173.9,-841.4 77.5,-100.6 379.2,-120.7 342.3,-445.9 -36.8,-325.1 -957.5,-732.4 -898.3,-1001.4 0,0 -360.8,530.3 -102.8,772.4 0,0 -125.8,-118.5 -138.6,-259.3 0,0 -34.1,274.9 140.8,362.8 154.8,77.8 281.6,362.4 268.2,413.2 -13.4,50.9 -442.5,835.3 -442.5,835.3"
         style="fill:#2c3a64;fill-opacity:1;fill-rule:nonzero;stroke:none"
         id="path78" /><path
         d="m 19258.5,13059.3 c 0,0 -522.2,-1317.8 -634.8,-1268.9 -112.6,48.8 -775.8,259.4 -775.8,259.4 l -43.6,-161.4 c 0,0 631.1,-486.3 955.9,-507.6 324.7,-21.3 764.6,935.5 764.6,935.5 l -266.3,743"
         style="fill:#ffb27d;fill-opacity:1;fill-rule:nonzero;stroke:none"
         id="path80" /><path
         d="m 19264,12113.8 515,-1799.9 c 7.6,-26.5 10.1,-53.4 8.4,-79.4 -6.3,-94.6 -71,-179.5 -167.4,-207.1 L 16494.2,9133 c -96.9,-27.7 -196.9,10.8 -252.2,88.4 -14.9,20.9 -26.6,44.6 -34,70.7 l -514.8,1799.1 c -35.2,123.1 35.9,251.2 158.7,286.4 l 3125.9,894.4 c 122.6,35.1 250.5,-35.5 286.2,-158.2"
         style="fill:#ed8537;fill-opacity:1;fill-rule:nonzero;stroke:none"
         id="path82" /><path
         d="m 19787.4,10234.5 c -6.3,-94.6 -71,-179.5 -167.4,-207.1 L 16494.2,9133 c -96.9,-27.7 -196.9,10.8 -252.2,88.4 l 1592.1,1450.4 1953.3,-437.3"
         style="fill:#dd6d22;fill-opacity:1;fill-rule:nonzero;stroke:none"
         id="path84" /><path
         d="m 19264,12113.8 -1399.4,-1737.8 -2145.1,623.1 -26.3,92.1 c -35.2,123.1 35.9,251.2 158.7,286.4 l 3125.9,894.4 c 122.6,35.1 250.5,-35.5 286.2,-158.2"
         style="fill:#f99746;fill-opacity:1;fill-rule:nonzero;stroke:none"
         id="path86" /><path
         d="m 18079.3,12016.1 c 0,0 -286,120.8 -325.6,-32 -21,-80.8 -70.1,-187.6 18.2,-179.6 88.2,8 176.8,67.2 186.6,115.4 9.8,48.1 120.8,96.2 120.8,96.2"
         style="fill:#ffb27d;fill-opacity:1;fill-rule:nonzero;stroke:none"
         id="path88" /><path
         d="m 21678.9,10868.5 c -2.4,-4.3 -5,-8.8 -7.5,-13.3 -60,-104.3 -197.7,-359.9 -349.3,-639.5 -71.7,-132.7 -146.8,-270.9 -218,-400.8 -122.8,-224.3 -234.4,-424.1 -299.6,-529.6 -66.2,-107.4 -115,-182.8 -134.8,-212.9 l -0.1,-0.2 c -5.9,-9.3 -7.2,-20.2 -6.4,-31.1 6.9,-94.7 4.9,-188.7 -4.4,-281.3 -91.4,-909.8 -704.9,-1397.4 -704.9,-1397.4 l -182.5,-27 c 0,0 258.2,956.4 334.2,1497.1 12.9,91.6 18.5,165.9 14,214.4 -13.5,140.8 11.6,347.6 58.9,585.1 84.2,421.9 238.7,939.9 373,1354.4 8.5,26.5 265.1,954.5 265.1,954.5 215.3,-188.2 1000.6,-265.9 1000.6,-265.9 0,0 133.2,-323.7 -138.3,-806.5"
         style="fill:#2b478b;fill-opacity:1;fill-rule:nonzero;stroke:none"
         id="path90" /><path
         d="m 19388.6,7104.6 h 761.3 c 0,0 18.3,116.1 -21.5,204.1 -38.1,84.5 -92.4,87.1 -6.9,219.6 -48.4,-49.9 -203.9,-70.4 -314,-55.6 -13.5,-21.9 -86.9,-168.6 -132,-201 -49.7,-35.7 -271.6,-23 -286.9,-167.1"
         style="fill:#233862;fill-opacity:1;fill-rule:nonzero;stroke:none"
         id="path92" /><path
         d="m 21678.9,10868.5 c -2.4,-4.3 -5,-8.8 -7.5,-13.3 -60,-104.3 -384.5,-703.7 -536.2,-983.4 175.7,722.8 53.5,1445.6 53.5,1445.6 l 490.2,-448.9"
         style="fill:#233862;fill-opacity:1;fill-rule:nonzero;stroke:none"
         id="path94" /><path
         d="m 18844.2,14485 c -5,20 434.9,-198.8 457.2,-223.5 206.2,-228.8 147.4,-527.4 29.4,-530.3 -75.7,-1.8 -61,-127.7 -61,-127.7 l -843.3,356.8 c 0,0 101.5,592.1 417.7,524.7"
         style="fill:#2c3a64;fill-opacity:1;fill-rule:nonzero;stroke:none"
         id="path96" /><path
         d="m 19127.6,13031.9 c 0,0 -112.3,-116.3 -112.3,-464.4 0,0 154.7,-244.3 556,-306.1 0,0 -345,770.7 -443.7,770.5"
         style="fill:#f9ddbf;fill-opacity:1;fill-rule:nonzero;stroke:none"
         id="path98" /><path
         d="m 21085.4,11618.3 -2.6,142.4 c 283.7,-35.7 978.2,339.1 978.2,339.1 0,0 296.9,-197.4 337.5,-761.2 19.8,-275.2 145.3,-1438.9 159.2,-1786.4 5,-126 6.7,-215.8 7.3,-251.8 l -0.1,-0.3 c 0.2,-11 5.3,-20.6 12.1,-29.3 58.7,-74.6 109.6,-153.7 153.7,-235.7 432.9,-805.4 206.5,-1899.9 206.5,-1899.9 l -100.5,25.6 c 0,0 -366,1134.6 -605.3,1625.3 -40.6,83.3 -77.5,148 -108.3,185.5 -90,109.2 -184.8,294.8 -278.3,518.1 -176.8,422.1 -759.4,2128.6 -759.4,2128.6"
         style="fill:#2b478b;fill-opacity:1;fill-rule:nonzero;stroke:none"
         id="path100" /><path
         d="m 22331.8,7104.6 h 761.4 c 0,0 18.2,116.1 -21.6,204.1 -38.1,84.5 -97.8,122.9 -83.5,225.1 -48.3,-49.9 -127.2,-105.6 -237.3,-90.8 -13.4,-21.9 -87,-138.9 -132.1,-171.3 -49.7,-35.7 -271.6,-23 -286.9,-167.1"
         style="fill:#233862;fill-opacity:1;fill-rule:nonzero;stroke:none"
         id="path102" /><path
         d="m 19622.7,12097.9 c 102.3,-17.5 -16.7,-98.8 124,-114 200.2,-21.9 406.9,-36.8 515.2,-80 39.5,-15.8 65.9,-35.2 74.1,-60.1 46.9,-141.1 344.2,-383.6 344.2,-383.6 1325.7,60.3 1380.9,639.6 1380.9,639.6 -860.5,835.6 -1651.6,1328.4 -2255.6,1393.6 -103.4,11.2 -234.2,-54.4 -327.3,-95.9 -211.5,-94.2 -350.6,-365.6 -350.6,-365.6 0,0 106.6,-867.7 495.1,-934"
         style="fill:#f9ddbf;fill-opacity:1;fill-rule:nonzero;stroke:none"
         id="path104" /><path
         d="m 19746.7,11983.9 c 200.2,-21.9 406.9,-36.8 515.2,-80 44.2,661.2 -267.8,1158.5 -267.8,1158.5 0,0 -203.6,-828.3 -247.4,-1078.5"
         style="fill:#f2ccaa;fill-opacity:1;fill-rule:nonzero;stroke:none"
         id="path106" /><path
         d="m 19574,13174.3 c 0,0 503.4,27.5 592.9,-288.6 89.4,-316 -167.8,-1577.7 -223.3,-1707.9 -100.9,-237 -592.4,-913.7 -592.4,-913.7 l -180.7,55.1 c 0,0 327.7,1033.6 400.8,1135.9 114.9,160.6 -148,1581.7 2.7,1719.2"
         style="fill:#ffb27d;fill-opacity:1;fill-rule:nonzero;stroke:none"
         id="path108" /><path
         d="m 19170.5,10319.2 c 0,0 -9.3,-80.2 -43.1,-121.5 -33.9,-41.4 -132.4,-141.5 -134.2,-200.2 0,0 5,-26 26.1,-21.2 21.1,4.7 94.5,77.4 132.2,72.2 0,0 -20.1,-117.5 -40,-150.6 -20,-33 -4.1,-173.3 7.9,-201.9 11.9,-28.5 158.8,153.3 219.2,234.5 60.4,81.2 0.9,410.7 0.9,410.7 l -169,-22"
         style="fill:#ffb27d;fill-opacity:1;fill-rule:nonzero;stroke:none"
         id="path110" /><path
         d="m 20266.2,12463.1 c -1.3,-7.4 -476.5,-87.4 -773.6,63.4 0,0 -248.3,777.7 106.5,740.5 354.8,-37.2 564.8,-149 573.8,-318.8 8.9,-169.8 93.3,-485.1 93.3,-485.1"
         style="fill:#f9ddbf;fill-opacity:1;fill-rule:nonzero;stroke:none"
         id="path112" /><path
         d="m 19478.2,13397.5 c 0,0 -139.9,-522.2 -350.6,-365.6 5.9,25.2 -30.8,98.5 -74.1,172.9 -55.4,95.2 -121.3,192.4 -121.3,192.4 l 284.9,249.7 17,14.9 c 87.3,-152.4 172.9,-212.3 244.1,-264.3"
         style="fill:#ffb27d;fill-opacity:1;fill-rule:nonzero;stroke:none"
         id="path114" /><path
         d="m 18932.2,13397.1 c 0,0 65.9,-97 121.2,-192.3 177.1,109.2 177.3,328.5 163.7,442.1 l -284.9,-249.8"
         style="fill:#ed985f;fill-opacity:1;fill-rule:nonzero;stroke:none"
         id="path116" /><path
         d="m 18924.3,13272 c 0,0 430,239.3 276.9,504.8 -153.1,265.5 -200.8,475.2 -481.8,333.6 -281,-141.5 -275.5,-273.3 -245.9,-374.4 29.5,-101 335,-519.4 450.8,-464"
         style="fill:#ffb27d;fill-opacity:1;fill-rule:nonzero;stroke:none"
         id="path118" /><path
         d="m 18400.8,13890.9 c 19.7,117.9 79.6,129.1 121.4,121.3 158.8,262.6 418.2,160.1 418.2,160.1 138.6,-173.9 339,-203.6 339,-203.6 0,0 -49.9,-92.8 -255.5,-150.3 -62.8,-17.6 -134.1,-6.9 -202.9,16.2 142.7,-79.5 291.9,-110 291.9,-110 -271,-24.8 -528.8,222.9 -555.5,249.4 -12.5,-38.4 -34.5,-118.7 -21.3,-177.5 17.8,-79.8 88.7,-224.5 45.4,-243.2 0,0 -210.2,160.8 -180.7,337.6"
         style="fill:#2c3a64;fill-opacity:1;fill-rule:nonzero;stroke:none"
         id="path120" /><path
         d="m 13138.8,10018.7 c 26.7,-30.7 30.1,-64.9 16.9,-101.5 l -0.3,-0.5 c -24.5,-67.7 -105.4,-143.3 -199.4,-218.8 -12,-9.7 -22.7,-18.5 -32,-26.7 -2.4,-2.1 -4.9,-4.2 -7.2,-6.4 -1.9,-1.7 -3.7,-3.4 -5.5,-5 -87.6,-80.8 -54.7,-99.3 -212.1,-263.3 -179.6,-186.8 -303.2,-190.1 -338.4,-173.1 -29.7,14.5 30.7,113.6 97.7,224.9 3.2,5.4 6.4,10.8 9.8,16.3 8.9,14.8 17.7,29.8 26.6,44.7 78.5,134 58.3,196.9 39.7,396.4 -15.1,162.1 -252.1,905.5 -252.1,905.5 l 344,59.3 c 0,0 103.7,-592 217.8,-683.2 61.1,-48.6 129.4,-49.2 188.1,-85.2 4.2,-2.5 8.2,-5.1 12.2,-7.7 33.4,-22.1 67.3,-44.9 94.2,-75.7"
         style="fill:#ffb27d;fill-opacity:1;fill-rule:nonzero;stroke:none"
         id="path122" /><path
         d="m 13138.8,10018.7 c 26.7,-30.7 30.1,-64.9 16.9,-101.5 l -0.3,-0.5 c -30,-67.7 -108.9,-142.9 -199.7,-218.1 -11.9,-9.9 -22.4,-18.9 -31.7,-27.4 -2.4,-2.1 -4.9,-4.2 -7.2,-6.4 -1.9,-1.7 -3.7,-3.4 -5.5,-5 -87.6,-80.8 -54.7,-99.3 -212.1,-263.3 -179.6,-186.8 -303.2,-190.1 -338.4,-173.1 -29.7,14.5 30.7,113.6 97.7,224.9 35,12.8 197.3,78.8 320.1,235.9 108.1,137.9 180.2,315.2 253.8,417.9 4.2,-2.5 8.2,-5.1 12.2,-7.7 33.4,-22.1 67.3,-44.9 94.2,-75.7"
         style="fill:#233862;fill-opacity:1;fill-rule:nonzero;stroke:none"
         id="path124" /><path
         d="m 10364.2,10233.6 c -21.2,-106.2 -172.6,-88.5 -341.8,-47.1 -169.11,41.3 -128.91,-7.8 -369.64,18.8 -240.74,26.6 -313.66,116.4 -321,152.2 -6.58,31.8 112.38,43 239.96,57.7 16.04,1.8 32.16,3.7 48.28,5.7 144.05,18.1 249.54,111.1 380.4,187.4 123.9,72.3 308.9,366.9 308.9,366.9 l 330.1,-26.1 c 0,0 -173.2,-263.2 -240.2,-377.6 -39.4,-67.3 -37.3,-156.2 -32.4,-224.9 2.5,-37.4 5,-75.6 -2.6,-113"
         style="fill:#ffb27d;fill-opacity:1;fill-rule:nonzero;stroke:none"
         id="path126" /><path
         d="m 10022.4,10186.5 c -169.11,41.3 -128.91,-7.8 -369.64,18.8 -240.74,26.6 -313.66,116.4 -321,152.2 -6.58,31.8 112.38,43 239.96,57.7 l 1.19,-2.5 c 0,0 144.37,-102.3 344.76,-107.1 163.33,-4 336.33,42.8 449.13,41 2.5,-37.4 5,-75.6 -2.6,-113 -21.2,-106.2 -172.6,-88.5 -341.8,-47.1"
         style="fill:#233862;fill-opacity:1;fill-rule:nonzero;stroke:none"
         id="path128" /><path
         d="m 11629.4,12344.6 308.6,-830.4 403,-1084.4 c 0,0 109.3,-10.5 214,19.6 96.4,27.8 207,100.7 207,100.7 0,0 -111.8,1164.3 -320.6,1832.7 -53.4,171.5 -113.4,310.3 -179.5,388.4 -323.6,382.4 -632.5,-426.6 -632.5,-426.6"
         style="fill:#233862;fill-opacity:1;fill-rule:nonzero;stroke:none"
         id="path130" /><path
         d="m 11943.2,13663.5 c 202.2,65.2 778.9,-18.5 1358.2,-131.9 l 121.2,200.1 1251.3,97.7 c 0,0 412.9,-915.7 186.8,-1499.1 -33.2,-85.7 -99.2,-140.7 -211.7,-142.5 h -18.3 c 0,0 -744.7,0.4 -986.5,0.4 -622.3,0 -1317,427.7 -1406.8,445.7 -147.1,29.4 -205.9,-264.7 -353,-573.6 -147.1,-308.9 -1382.6,-1367.9 -1382.6,-1367.9 0,0 -189.9,-1.9 -268.4,27.5 -84.3,31.6 -115.2,72.7 -115.2,72.7 0,0 1369,2723.8 1825,2870.9"
         style="fill:#2b478b;fill-opacity:1;fill-rule:nonzero;stroke:none"
         id="path132" /><path
         d="m 13074.1,15471.3 c 394.6,-320.9 1345.3,-877.1 1350.5,-874.7 0,0 304.6,-182.5 512.4,-92.9 346.3,149.2 612.3,671.6 133.2,1249.6 -238.9,288.2 -437,383.2 -390.5,766.4 50.4,415.2 -137.1,937.2 -615,959.2 -39.9,1.8 -281.9,34.1 -454.7,-20.1 -440.1,-138.2 -1176.2,-1774.9 -535.9,-1987.5"
         style="fill:#a9453d;fill-opacity:1;fill-rule:nonzero;stroke:none"
         id="path134" /><path
         d="m 14368.3,15956.5 c 2,-0.3 -96.2,-214.4 -239.1,-266.3 -151.9,-55.4 -367.6,34.6 -365.6,35.8 25.9,14.8 44.3,112.2 34.3,229.3 -0.6,5.5 -1,11.2 -1.7,16.9 -13.4,131 -51.2,274.5 -53.7,283.9 l -0.1,0.4 463.1,132.4 27.4,7.8 c 29.1,-366 72.5,-433.2 135.4,-440.2"
         style="fill:#ffb27d;fill-opacity:1;fill-rule:nonzero;stroke:none"
         id="path136" /><path
         d="m 14205.5,16388.9 c -44.9,-134.6 -159.5,-377.8 -409.3,-416.7 -13.4,131 -51.2,274.5 -53.7,283.9 l -0.1,0.4 463.1,132.4"
         style="fill:#ed975d;fill-opacity:1;fill-rule:nonzero;stroke:none"
         id="path138" /><path
         d="m 13665.4,16117 c 0,0 624.2,41.5 592.3,429.8 -31.8,388.3 27.3,655.2 -372.6,645.1 -399.8,-10 -465,-164.6 -485.9,-296.7 -20.9,-132.3 103,-779 266.2,-778.2"
         style="fill:#ffb27d;fill-opacity:1;fill-rule:nonzero;stroke:none"
         id="path140" /><path
         d="m 13553.2,17198.9 c 0,0 155.1,-455.1 523.3,-508 268.6,-38.6 375.3,34 375.3,34 0,0 -149.9,142.5 -231.2,361.7 -24,64.6 -80.6,111.6 -148.6,122.1 -191.3,29.5 -438.1,156.1 -518.8,-9.8"
         style="fill:#a9453d;fill-opacity:1;fill-rule:nonzero;stroke:none"
         id="path142" /><path
         d="m 13685.5,17118.3 c 0,0 -111.5,-45 -189.2,-211.4 -42.5,-90.9 -73.2,-307.5 -47,-396.7 0,0 -179.5,415.2 -49.5,602.4 137.8,198.4 285.7,5.7 285.7,5.7"
         style="fill:#a9453d;fill-opacity:1;fill-rule:nonzero;stroke:none"
         id="path144" /><path
         d="m 14887.9,14523.4 c -11.1,-47.1 -20.6,-90.5 -28.3,-130.5 -12.7,-64.6 -21.4,-120.3 -27.5,-169.4 -19.1,-153.1 -13.3,-243.8 -26.2,-343.1 -7.1,-55.5 -20.2,-113.7 -46.5,-186.8 -25.8,-71.1 -702.3,-134.5 -1087.2,-109 -122.2,8 -215.3,25.2 -248.4,53.7 -137.3,119.3 -123.6,-143 -142.5,1112 -9.1,612.1 519.4,1157.3 519.4,1157.3 0,0 42.2,-261.5 566.4,49.7 18.6,10.9 225.1,-294.8 423.7,-671.2 218.9,-415.8 158.9,-503.7 97.1,-762.7"
         style="fill:#aec3ff;fill-opacity:1;fill-rule:nonzero;stroke:none"
         id="path146" /><path
         d="m 11938,11514.2 403,-1084.4 c 0,0 109.3,-10.5 214,19.6 96.4,27.8 207,100.7 207,100.7 0,0 -111.8,1164.3 -320.6,1832.7 l -503.4,-868.6"
         style="fill:#2b478b;fill-opacity:1;fill-rule:nonzero;stroke:none"
         id="path148" /><path
         d="m 13800.7,15907.7 c 0,0 -539.3,-91.5 -602.6,-323.7 -63.4,-232.2 -500.9,-1530.9 -500.9,-1530.9 0,0 339,-115.7 465.7,11 126.6,126.6 440.7,1175.1 440.7,1175.1 l 197.1,668.5"
         style="fill:#aec3ff;fill-opacity:1;fill-rule:nonzero;stroke:none"
         id="path150" /><path
         d="m 13769.6,16366.4 c 0,0 -15.3,-67.2 -83.3,-78.5 -68,-11.3 -88.1,-4.2 -103.3,8 -15.3,12.3 -32.7,37.9 -32.7,37.9 0,0 109,41 219.3,32.6"
         style="fill:#ffffff;fill-opacity:1;fill-rule:nonzero;stroke:none"
         id="path152" /><path
         d="m 14832.1,14223.5 c -19.1,-153.1 -13.3,-243.8 -26.2,-343.1 -489.7,-1.6 -1144.4,378.2 -1144.4,378.2 l 1170.6,-35.1"
         style="fill:#94b0ed;fill-opacity:1;fill-rule:nonzero;stroke:none"
         id="path154" /><path
         d="m 13661.5,14579.7 c 0,0 762.9,22.8 891.5,456.4 141.2,476.4 299.5,-195.9 299.5,-195.9 l -84.2,-429.1 h -837 l -269.8,168.6"
         style="fill:#94b0ed;fill-opacity:1;fill-rule:nonzero;stroke:none"
         id="path156" /><path
         d="m 13816.4,13860.7 -1183.6,-11.1 -582.5,1368.8 1183.6,11 582.5,-1368.7"
         style="fill:#f9ddbf;fill-opacity:1;fill-rule:nonzero;stroke:none"
         id="path158" /><path
         d="m 13661.6,14479.2 -86.8,106.6 c 0,0 -58.7,52.4 -101.3,61.3 -42.6,8.9 -132.6,60.8 -141.3,46.2 -8.7,-14.6 69.1,-118.9 69.1,-118.9 l 4,-0.6 c -89.4,-67.2 -315,-7.9 -342.8,-35.3 -33.8,-33.2 46.4,-105.1 89.5,-145.4 43,-40.4 166.1,-107.6 262,-77.7 70.1,21.8 180.5,44 180.5,44 l 67.1,119.8"
         style="fill:#ffb27d;fill-opacity:1;fill-rule:nonzero;stroke:none"
         id="path160" /><path
         d="m 14367.2,15957.2 c 0,0 495.2,-32.4 619,-225.6 123.8,-193.1 277.3,-1173.7 212.9,-1510.5 -64.4,-336.7 -1650.2,64.4 -1650.2,64.4 l 50.6,292.2 c 0,0 915.2,-5.3 967.4,113.9 69.3,158.5 -199.7,1265.6 -199.7,1265.6"
         style="fill:#aec3ff;fill-opacity:1;fill-rule:nonzero;stroke:none"
         id="path162" /><path
         d="m 12139.4,14977.6 c 0,0 74.3,84.5 121.7,44 47.3,-40.6 -12.4,-240.1 -57.5,-219.8 -45.1,20.3 -90.2,151 -64.2,175.8"
         style="fill:#ffb27d;fill-opacity:1;fill-rule:nonzero;stroke:none"
         id="path164" /><path
         d="m 6579.68,10147.5 c -26.36,79.4 884.06,205.4 782.42,-521.1 0,0 1632.96,-219.2 1000.73,811.2 -218.88,356.7 -149.87,611.8 -103.33,852.1 46.66,240.3 -17.14,970.4 -630.47,995.6 0,0 -147.45,89.3 -360.48,18.5 -484.47,-160.8 -1844.53,-2246.1 -688.87,-2156.3"
         style="fill:#163560;fill-opacity:1;fill-rule:nonzero;stroke:none"
         id="path166" /><path
         d="m 7904.69,9167.1 c 0,0 58.27,-115.4 163.98,-248 127.4,-159.5 796.12,219.2 738.51,248 -57.61,28.8 -393.64,996.9 -473.62,1118.6 -80.07,121.6 -352.74,184.8 -352.74,184.8 l -76.13,-1303.4"
         style="fill:#f9ddbf;fill-opacity:1;fill-rule:nonzero;stroke:none"
         id="path168" /><path
         d="m 5648.05,2638 c 0,0 -184.56,-168.5 -148.55,-288.1 36.01,-119.7 202.57,-199.5 225.08,-345.8 22.51,-146.2 112.54,-226 193.57,-226 81.03,0 386.31,0 386.31,0 0,0 59.65,102.9 -84.41,133.9 -144.05,31 -198.36,202.9 -189.36,362.5 9,159.6 -13.5,372.3 -13.5,372.3 l -306.12,71 -63.02,-79.8"
         style="fill:#233862;fill-opacity:1;fill-rule:nonzero;stroke:none"
         id="path170" /><path
         d="m 7210.21,2566.5 c 0,0 -66.39,-713.6 14.63,-753.5 l 1036.99,2.2 c 0,0 0,119.6 -166.56,146.2 -166.56,26.6 -459.16,124.1 -508.68,341.3 -49.52,217.2 -376.38,263.8 -376.38,263.8"
         style="fill:#233862;fill-opacity:1;fill-rule:nonzero;stroke:none"
         id="path172" /><path
         d="m 6471.24,7685.6 c 213.39,478.6 343.97,616 319.04,764.5 -18.55,110.5 56.49,2061.2 56.49,2061.2 25.32,7.9 76.07,14.9 103.84,21.1 87.52,19.4 159.97,80.9 190.12,165.3 36.32,101.7 65.2,251.9 64.52,440.1 l 27.34,-5.3 459.62,-91.1 c 0,0 -10.46,-144.6 -10.77,-280.9 0,-1.1 0,-2.2 -0.01,-3.4 -0.56,-118.3 77.08,-222.7 190.78,-255.6 58.05,-16.7 108.56,-31.1 108.56,-31.1 0,0 168.78,-481.8 201.01,-976.8 32.24,-495 -306.9,-710 2.56,-1699.2 315.94,-1010.3 -1830.98,-373.2 -1713.1,-108.8"
         style="fill:#ffb27d;fill-opacity:1;fill-rule:nonzero;stroke:none"
         id="path174" /><path
         d="m 7692.21,11041.4 c 0,0 -10.46,-144.6 -10.77,-280.9 -257.2,7.3 -393.14,241.9 -448.85,372 l 459.62,-91.1"
         style="fill:#e8945b;fill-opacity:1;fill-rule:nonzero;stroke:none"
         id="path176" /><path
         d="m 7719.95,10849.3 c 0,0 -602.52,85.8 -543.3,460.2 59.21,374.4 21.33,637.6 408.53,598.7 387.2,-39 439.17,-193.7 449.8,-323.4 10.63,-129.8 -156.77,-748.2 -315.03,-735.5"
         style="fill:#ffb27d;fill-opacity:1;fill-rule:nonzero;stroke:none"
         id="path178" /><path
         d="m 7860.34,11873.7 c 0,0 -234.5,-412.9 -497.35,-437.6 -262.86,-24.7 -361.61,60.4 -361.61,60.4 0,0 218.2,123 301.18,385.2 0,0 466.97,220.8 557.78,-8"
         style="fill:#163560;fill-opacity:1;fill-rule:nonzero;stroke:none"
         id="path180" /><path
         d="m 7813.89,11844.6 c 0,0 114.74,-65.1 150.78,-162.1 35.25,-94.8 58.72,-216.7 26.49,-356.6 0,0 171.52,278.8 59.1,469.8 -119.2,202.6 -236.37,48.9 -236.37,48.9"
         style="fill:#163560;fill-opacity:1;fill-rule:nonzero;stroke:none"
         id="path182" /><path
         d="m 6412.51,9648.4 c 0,0 -15.45,-217.8 0,-479.3 10.28,-173.3 185.58,-405.4 210.44,-462.8 62.41,-144 132.79,-167.5 132.79,-167.5 l 544.47,-133.4 191.44,-46.9 603.71,180.3 c 0,0 274.97,767.5 164.56,1199.6 -110.41,432 -279.1,732.1 -279.1,732.1 0,0 -492.63,-482.4 -1134.07,40.9 l -434.24,-863"
         style="fill:#f9ddbf;fill-opacity:1;fill-rule:nonzero;stroke:none"
         id="path184" /><path
         d="m 6360.64,9163.1 c 10.28,-173.3 237.45,-399.4 262.31,-456.8 62.41,-144 132.79,-167.5 132.79,-167.5 l 544.47,-133.4 145.24,204.8 c 0,0 -881.4,245.2 -714.51,1022.3 l -370.3,-469.4"
         style="fill:#f2ccaa;fill-opacity:1;fill-rule:nonzero;stroke:none"
         id="path186" /><path
         d="m 8056.96,8422.4 c 0,0 298.97,-930.6 318.17,-1247.5 19.21,-316.8 -571.49,-4500.8 -595.26,-4646.8 -22.4,-137.7 -193.28,-225.4 -193.28,-225.4 0,0 -78.59,-46.3 -190.76,-14.7 -155.62,44 -204.82,96.6 -204.82,96.6 0,0 -232.7,2984 -88.69,4050 144.01,1065.9 145.7,1987.8 145.7,1987.8 h 808.94"
         style="fill:#ed7d2b;fill-opacity:1;fill-rule:nonzero;stroke:none"
         id="path188" /><path
         d="m 6790.28,8450.1 c 0,0 -456.04,-611.9 -498.56,-1025.5 -42.51,-413.7 -66.7,-1866.6 -157.28,-2269.9 -90.57,-403.2 -423.37,-1179.2 -423.37,-2436.9 0,0 34.6,-72.1 141.41,-110.5 34.15,-12.3 79.92,-24.2 124.35,-34.4 88.08,-20.2 178.45,22.9 218.65,103.8 225,453 941.68,1914 978.43,2217.3 26,214.6 252.29,1635.1 745.89,2468.6 118.51,200.2 -72.72,995.9 -72.72,995.9 l -1056.8,91.6"
         style="fill:#f99746;fill-opacity:1;fill-rule:nonzero;stroke:none"
         id="path190" /><path
         d="m 7637.95,11090.2 c 0,0 3.36,-45.8 114.19,-56.5 0,0 93.05,-8.9 97.95,40 0,0 -83.85,48.7 -212.14,16.5"
         style="fill:#ffffff;fill-opacity:1;fill-rule:nonzero;stroke:none"
         id="path192" /><path
         d="m 8104.72,8566 c 0,0 -120.03,-94.9 -358.45,-99.7 -284.8,-5.8 -990.5,72.6 -990.5,72.6 0,0 -31.36,-87.6 -30.08,-180.1 0,0 861.9,-217.5 1361.28,-31.8 0,0 64.41,121.2 17.75,239"
         style="fill:#233862;fill-opacity:1;fill-rule:nonzero;stroke:none"
         id="path194" /><path
         d="m 7727.71,8367.9 c 0,-57.3 38.98,-104 86.88,-104 47.91,0 86.89,46.7 86.89,104 0,57.4 -38.98,104 -86.89,104 -47.9,0 -86.88,-46.6 -86.88,-104 z m -43.07,0 c 0,81.1 58.29,147.1 129.95,147.1 71.66,0 129.96,-66 129.96,-147.1 0,-81.1 -58.3,-147.1 -129.96,-147.1 -71.66,0 -129.95,66 -129.95,147.1"
         style="fill:#ffffff;fill-opacity:1;fill-rule:nonzero;stroke:none"
         id="path196" /><path
         d="m 7191.93,7953.3 1295.42,-12.1 637.46,1498 -1295.43,12.2 -637.45,-1498.1"
         style="fill:#c5d9ea;fill-opacity:1;fill-rule:nonzero;stroke:none"
         id="path198" /><path
         d="m 7361.34,8630.3 94.95,116.6 c 0,0 64.27,57.4 110.89,67.1 46.63,9.7 145.1,66.5 154.65,50.5 9.55,-16 -75.65,-130.1 -75.65,-130.1 l -4.32,-0.6 c 97.8,-73.6 344.73,-8.6 375.21,-38.7 36.93,-36.3 -50.86,-115 -97.96,-159.1 -47.1,-44.2 -181.79,-117.8 -286.81,-85.1 -76.75,23.9 -197.57,48.2 -197.57,48.2 l -73.39,131.2"
         style="fill:#ffb27d;fill-opacity:1;fill-rule:nonzero;stroke:none"
         id="path200" /><path
         d="m 9027.36,9175.7 c 0,0 -81.4,92.5 -133.21,48.1 -51.81,-44.4 13.56,-262.7 62.91,-240.5 49.34,22.2 98.68,165.3 70.3,192.4"
         style="fill:#ffb27d;fill-opacity:1;fill-rule:nonzero;stroke:none"
         id="path202" /><path
         d="m 6846.75,10511.4 c 0,0 -431.96,-30.3 -597.54,-432.8 -165.59,-402.6 -472.69,-1260.8 -472.69,-1374.5 0,-113.7 339,-532 1665.45,-208.6 0,0 45.2,127.3 -43.46,191.7 0,0 -924.71,296.8 -923.12,355.9 2.99,111.7 124.96,208.3 641.49,725 140.43,140.4 -270.13,743.3 -270.13,743.3"
         style="fill:#f9ddbf;fill-opacity:1;fill-rule:nonzero;stroke:none"
         id="path204" /><path
         d="m 22993.5,13775.1 v 0 m 0,0 -1294,423.1 107.1,146.2 h 14.8 l 1172.1,-569.3 m 0,0 -828.5,630.3 53.4,125.2 775.1,-755.5"
         style="fill:#b5d1f8;fill-opacity:1;fill-rule:nonzero;stroke:none"
         id="path206" /><path
         d="m 22993.5,13775.1 v 0 m 0,0 -1172.1,569.3 -905.2,439.8 1073,-245.1 175.8,-133.7 828.5,-630.3"
         style="fill:#f8fbff;fill-opacity:1;fill-rule:nonzero;stroke:none"
         id="path208" /><path
         d="m 22993.5,13775.1 v 0 l -775.1,755.5 258.5,302.9 516.6,-1058.4"
         style="fill:#f8fbff;fill-opacity:1;fill-rule:nonzero;stroke:none"
         id="path210" /><path
         d="m 16205.3,16183 v 0 m 0,0 v 0 l 1269.2,362 14.8,-2.6 81.1,-164.7 -1365.1,-194.7 m 0,0 905.9,617.4 31.3,-134.2 -937.2,-483.2"
         style="fill:#b5d1f8;fill-opacity:1;fill-rule:nonzero;stroke:none"
         id="path212" /><path
         d="m 16205.3,16183 v 0 m 0,0 v 0 l 937.2,483.2 198.8,102.5 1113.4,56 -980.2,-279.7 -1269.2,-362"
         style="fill:#f8fbff;fill-opacity:1;fill-rule:nonzero;stroke:none"
         id="path214" /><path
         d="m 16205.3,16183 v 0 l 701.3,965 204.6,-347.6 -905.9,-617.4"
         style="fill:#f8fbff;fill-opacity:1;fill-rule:nonzero;stroke:none"
         id="path216" /><path
         d="m 10553.5,1806.1 h -79.5 c -415.6,80.8 -1886.03,398.5 -1873.57,848.7 13.57,486.6 1710.67,-679.6 1953.07,-848.7"
         style="fill:#cde0fb;fill-opacity:1;fill-rule:nonzero;stroke:none"
         id="path218" /><path
         d="m 11195,1806.1 h -302.3 c -763.9,498.9 -1907.66,1355.4 -1818.43,1961.7 132.95,904.3 902.07,-263.2 1152.53,-721.1 155.9,-285 631.5,-852.8 968.2,-1240.6"
         style="fill:#cde0fb;fill-opacity:1;fill-rule:nonzero;stroke:none"
         id="path220" /><path
         d="m 4788.31,9500.1 -449.19,-602.9 c -6.62,-8.9 -14.58,-16.3 -23.3,-22 -31.73,-21.1 -74.61,-21.1 -106.88,2.9 l -1047.06,780.2 c -32.44,24.1 -44.53,65.4 -33.2,102 3.04,9.8 7.77,19.3 14.27,28.1 l 449,602.6 c 30.73,41.3 88.94,49.8 130.1,19.1 L 4769.1,9630 c 41.08,-30.6 49.7,-88.7 19.21,-129.9"
         style="fill:#cde0fb;fill-opacity:1;fill-rule:nonzero;stroke:none"
         id="path222" /><path
         d="m 4315.82,8875.2 c -31.73,-21.1 -74.61,-21.1 -106.88,2.9 l -1047.06,780.2 c -32.44,24.1 -44.53,65.4 -33.2,102 l 850.92,-155 336.22,-730.1"
         style="fill:#bed7fb;fill-opacity:1;fill-rule:nonzero;stroke:none"
         id="path224" /><path
         d="m 4788.31,9500.1 -895.73,23.4 -323.61,836.7 22.98,30.8 c 30.73,41.3 88.94,49.8 130.1,19.1 L 4769.1,9630 c 41.08,-30.6 49.7,-88.7 19.21,-129.9"
         style="fill:#dfebfd;fill-opacity:1;fill-rule:nonzero;stroke:none"
         id="path226" /><path
         d="m 20868.4,6039.4 517.9,-2852.3 c 7.6,-42 7.5,-83.8 0.7,-123.6 -24.1,-144.8 -136.9,-265.7 -289.5,-293.4 l -4953.6,-899.4 c -153.5,-27.9 -301.8,46.7 -375,174.8 -19.8,34.5 -34.2,72.8 -41.6,114.1 l -517.7,2851.1 c -35.5,195.1 93.7,381.6 288.4,416.9 l 4953.6,899.5 c 194.3,35.3 380.6,-93.1 416.8,-287.7"
         style="fill:#ed8537;fill-opacity:1;fill-rule:nonzero;stroke:none"
         id="path228" /><path
         d="m 21387,3063.5 c -24.1,-144.8 -136.9,-265.7 -289.5,-293.4 l -4953.6,-899.4 c -153.5,-27.9 -301.8,46.7 -375,174.8 l 2675.3,1991.1 2942.8,-973.1"
         style="fill:#dd6d22;fill-opacity:1;fill-rule:nonzero;stroke:none"
         id="path230" /><path
         d="m 20868.4,6039.4 -2422.5,-2463.3 -3209.8,1288.7 -26.5,145.9 c -35.5,195.1 93.7,381.6 288.4,416.9 l 4953.6,899.5 c 194.3,35.3 380.6,-93.1 416.8,-287.7"
         style="fill:#f99746;fill-opacity:1;fill-rule:nonzero;stroke:none"
         id="path232" /><path
         d="m 21173.9,1966.1 c -18.1,-57.1 -28.7,-111.3 -32.8,-162.5 h 651.3 c -87.6,259.7 -117.4,783.5 -117.4,783.5 -295.4,-174.9 -501.1,-621 -501.1,-621 z m 3135.7,607.4 c 119.7,63.6 279.9,374.2 15.1,850.7 -264.9,476.4 -1087.1,103.3 -1087.1,103.3 0,0 -363.8,-1038.6 -528.8,-1102.2 -164.9,-63.4 137.6,948.8 137.6,948.8 -337.6,-49.8 -1078.1,-662.3 -1078.1,-662.3 0,0 188,-621.1 189.7,-908.2 h 1668.9 l 600,-1.9 c 85.1,233.1 116.5,452.8 116.5,452.8 -284.8,-172.3 -880.2,-139.1 -927.9,-38 -47.6,101.1 774.2,293.4 894.1,357"
         style="fill:#cde0fb;fill-opacity:1;fill-rule:nonzero;stroke:none"
         id="path234" /><path
         d="M 29290.1,1737 H 2588.09 c -22.43,0 -40.78,18.4 -40.78,40.8 v 46.7 c 0,22.4 18.35,40.8 40.78,40.8 H 29290.1 c 22.4,0 40.8,-18.4 40.8,-40.8 v -46.7 c 0,-22.4 -18.4,-40.8 -40.8,-40.8"
         style="fill:#2e3552;fill-opacity:1;fill-rule:nonzero;stroke:none"
         id="path236" /><path
         d="m 18124.1,4044.9 c 25,91.8 65.5,153.4 151.6,154.4 129.3,1.4 174.5,-72.5 196,-155.8 29.2,-112.6 -88.2,-153.9 -173.8,-162.7 -122.4,-12.5 -196.5,81.1 -173.8,164.1"
         style="fill:#2b478b;fill-opacity:1;fill-rule:nonzero;stroke:none"
         id="path238" /></g></g></svg>
